<svg xmlns="http://www.w3.org/2000/svg" xmlns:xlink="http://www.w3.org/1999/xlink" width="313" height="273" viewBox="0 0 313 273">
  <defs>
    <filter id="Rectangle_40" x="0" y="0" width="313" height="273" filterUnits="userSpaceOnUse">
      <feOffset dy="4" input="SourceAlpha"/>
      <feGaussianBlur stdDeviation="6" result="blur"/>
      <feFlood flood-opacity="0.161"/>
      <feComposite operator="in" in2="blur"/>
      <feComposite in="SourceGraphic"/>
    </filter>
  </defs>
  <g id="Group_86" data-name="Group 86" transform="translate(-121 -805)">
    <g id="Group_17" data-name="Group 17">
      <g transform="matrix(1, 0, 0, 1, 121, 805)" filter="url(#Rectangle_40)">
        <rect id="Rectangle_40-2" data-name="Rectangle 40" width="277" height="237" rx="8" transform="translate(18 14)" fill="#f3f6ff"/>
      </g>
      <text id="Path_of_promotion" data-name="Path of promotion" transform="translate(179 938)" fill="#2d3c70" font-size="25" font-family="Lato-Regular, Lato"><tspan x="59.15" y="25">Path of </tspan><tspan x="40.137" y="55">promotion</tspan></text>
    </g>
    <path id="Icon_awesome-road" data-name="Icon awesome-road" d="M58.167,38.868,43.981,6.395A3.089,3.089,0,0,0,41.168,4.5h-9.9l.249,2.35a.812.812,0,0,1-.808.9H27.747a.812.812,0,0,1-.808-.9l.249-2.35h-9.9A3.09,3.09,0,0,0,14.47,6.395L.284,38.868a3.241,3.241,0,0,0,2.815,4.6H23.074l1.046-9.912A1.623,1.623,0,0,1,25.735,32.1h6.982a1.623,1.623,0,0,1,1.615,1.453l1.046,9.912H55.353A3.24,3.24,0,0,0,58.167,38.868ZM26.425,11.721a.812.812,0,0,1,.808-.727H31.22a.813.813,0,0,1,.808.727l.467,4.422a1.218,1.218,0,0,1-1.211,1.346H27.17a1.217,1.217,0,0,1-1.211-1.346l.466-4.422Zm5.606,17.134H26.42a1.623,1.623,0,0,1-1.615-1.794l.514-4.871a1.623,1.623,0,0,1,1.615-1.453h4.582a1.623,1.623,0,0,1,1.615,1.453l.514,4.871a1.623,1.623,0,0,1-1.615,1.794Z" transform="translate(247.385 877.68)"/>
  </g>
</svg>
