<svg xmlns="http://www.w3.org/2000/svg" xmlns:xlink="http://www.w3.org/1999/xlink" width="313" height="273" viewBox="0 0 313 273">
  <defs>
    <filter id="Rectangle_40" x="0" y="0" width="313" height="273" filterUnits="userSpaceOnUse">
      <feOffset dy="4" input="SourceAlpha"/>
      <feGaussianBlur stdDeviation="6" result="blur"/>
      <feFlood flood-opacity="0.161"/>
      <feComposite operator="in" in2="blur"/>
      <feComposite in="SourceGraphic"/>
    </filter>
  </defs>
  <g id="Group_87" data-name="Group 87" transform="translate(-524 -805)">
    <g id="Group_18" data-name="Group 18" transform="translate(403)">
      <g transform="matrix(1, 0, 0, 1, 121, 805)" filter="url(#Rectangle_40)">
        <rect id="Rectangle_40-2" data-name="Rectangle 40" width="277" height="237" rx="8" transform="translate(18 14)" fill="#f3f6ff"/>
      </g>
      <text id="Training_and_development" data-name="Training and development" transform="translate(182 937.878)" fill="#2d3c70" font-size="25" font-family="Lato-Regular, Lato"><tspan x="31.112" y="25">Training and </tspan><tspan x="26.363" y="55">development</tspan></text>
    </g>
    <path id="Icon_awesome-star" data-name="Icon awesome-star" d="M24.662,1.731l-6.35,12.874L4.106,16.677a3.113,3.113,0,0,0-1.721,5.309L12.663,32,10.232,46.149a3.11,3.11,0,0,0,4.512,3.277l12.709-6.68,12.709,6.68a3.112,3.112,0,0,0,4.512-3.277L42.242,32,52.52,21.986A3.113,3.113,0,0,0,50.8,16.677L36.593,14.605,30.243,1.731a3.114,3.114,0,0,0-5.581,0Z" transform="translate(655.559 876.709)"/>
  </g>
</svg>
