<svg xmlns="http://www.w3.org/2000/svg" xmlns:xlink="http://www.w3.org/1999/xlink" width="120" height="120" viewBox="0 0 120 120">
  <defs>
    <filter id="Ellipse_4" x="0" y="0" width="120" height="120" filterUnits="userSpaceOnUse">
      <feOffset dy="4" input="SourceAlpha"/>
      <feGaussianBlur stdDeviation="6" result="blur"/>
      <feFlood flood-opacity="0.161"/>
      <feComposite operator="in" in2="blur"/>
      <feComposite in="SourceGraphic"/>
    </filter>
  </defs>
  <g id="Group_89" data-name="Group 89" transform="translate(-134 -1369.5)">
    <g transform="matrix(1, 0, 0, 1, 134, 1369.5)" filter="url(#Ellipse_4)">
      <circle id="Ellipse_4-2" data-name="Ellipse 4" cx="42" cy="42" r="42" transform="translate(18 14)" fill="#fff"/>
    </g>
    <path id="Icon_awesome-map-marker-alt" data-name="Icon awesome-map-marker-alt" d="M15.141,44.092C2.37,25.579,0,23.679,0,16.875a16.875,16.875,0,0,1,33.75,0c0,6.8-2.37,8.7-15.141,27.217a2.11,2.11,0,0,1-3.469,0Zm1.734-20.186a7.031,7.031,0,1,0-7.031-7.031A7.031,7.031,0,0,0,16.875,23.906Z" transform="translate(177 1403)" fill="#2d3c70"/>
  </g>
</svg>
