<svg xmlns="http://www.w3.org/2000/svg" xmlns:xlink="http://www.w3.org/1999/xlink" width="120" height="120" viewBox="0 0 120 120">
  <defs>
    <filter id="Ellipse_7" x="0" y="0" width="120" height="120" filterUnits="userSpaceOnUse">
      <feOffset dy="4" input="SourceAlpha"/>
      <feGaussianBlur stdDeviation="6" result="blur"/>
      <feFlood flood-opacity="0.161"/>
      <feComposite operator="in" in2="blur"/>
      <feComposite in="SourceGraphic"/>
    </filter>
  </defs>
  <g id="Group_90" data-name="Group 90" transform="translate(-287 -1477.5)">
    <g transform="matrix(1, 0, 0, 1, 287, 1477.5)" filter="url(#Ellipse_7)">
      <circle id="Ellipse_7-2" data-name="Ellipse 7" cx="42" cy="42" r="42" transform="translate(18 14)" fill="#fff"/>
    </g>
    <path id="Icon_metro-phone" data-name="Icon metro-phone" d="M34.8,33c-2.8,3-2.8,6-5.6,6s-5.6-3-8.4-6-5.6-6-5.6-9,2.8-3,5.6-6S15.2,6,12.4,6,4,15,4,15c0,6,5.753,18.164,11.2,24S32,51,37.6,51c0,0,8.4-6,8.4-9s-8.4-12-11.2-9Z" transform="translate(323.002 1505.002)" fill="#2d3c70"/>
  </g>
</svg>
