<svg xmlns="http://www.w3.org/2000/svg" xmlns:xlink="http://www.w3.org/1999/xlink" width="120" height="120" viewBox="0 0 120 120">
  <defs>
    <filter id="Ellipse_3" x="0" y="0" width="120" height="120" filterUnits="userSpaceOnUse">
      <feOffset dy="4" input="SourceAlpha"/>
      <feGaussianBlur stdDeviation="6" result="blur"/>
      <feFlood flood-opacity="0.161"/>
      <feComposite operator="in" in2="blur"/>
      <feComposite in="SourceGraphic"/>
    </filter>
  </defs>
  <g id="Group_59" data-name="Group 59" transform="translate(-811 -1765)">
    <g transform="matrix(1, 0, 0, 1, 811, 1765)" filter="url(#Ellipse_3)">
      <circle id="Ellipse_3-2" data-name="Ellipse 3" cx="42" cy="42" r="42" transform="translate(18 14)" fill="#fff"/>
    </g>
    <path id="Icon_metro-eye" data-name="Icon metro-eye" d="M20.071,7.712A19.6,19.6,0,0,0,2.571,18.65a19.469,19.469,0,0,0,35,0A19.6,19.6,0,0,0,20.071,7.712Zm8.629,5.8a16.642,16.642,0,0,1,5.108,5.137A16.643,16.643,0,0,1,28.7,23.787a16.037,16.037,0,0,1-17.257,0A16.642,16.642,0,0,1,6.334,18.65a16.642,16.642,0,0,1,5.108-5.137c.134-.085.269-.168.405-.25a8.75,8.75,0,1,0,16.447,0q.2.122.405.25Zm-8.629,1.856a3.281,3.281,0,1,1-3.281-3.281A3.281,3.281,0,0,1,20.071,15.368Z" transform="translate(851.429 1802.288)" fill="#2d3c70"/>
  </g>
</svg>
