<svg xmlns="http://www.w3.org/2000/svg" width="45" height="45" viewBox="0 0 45 45">
  <g id="Group_12" data-name="Group 12" transform="translate(-205 -4579)">
    <circle id="Ellipse_1" data-name="Ellipse 1" cx="22.5" cy="22.5" r="22.5" transform="translate(205 4579)" fill="#b3b9cc"/>
    <path id="Icon_awesome-linkedin-in" data-name="Icon awesome-linkedin-in" d="M5.6,25H.413V8.31H5.6ZM3,6.033A3.016,3.016,0,1,1,6,3,3.027,3.027,0,0,1,3,6.033ZM24.994,25H19.823V16.876c0-1.936-.039-4.42-2.695-4.42-2.695,0-3.108,2.1-3.108,4.28V25H8.843V8.31h4.971v2.277h.073a5.446,5.446,0,0,1,4.9-2.7c5.246,0,6.21,3.454,6.21,7.941V25Z" transform="translate(214.7 4588.499)" fill="#2d3c70"/>
  </g>
</svg>
