<svg width="126" height="68" viewBox="0 0 126 68" fill="none" xmlns="http://www.w3.org/2000/svg">
<rect width="126" height="68" fill="#fff"/>
<path d="M12.9012 0.0719992C14.3825 0.0719992 15.5485 0.497333 16.3992 1.348C17.2645 2.19867 17.6972 3.35733 17.6972 4.824C17.6972 6.24667 17.2352 7.376 16.3112 8.212C15.3872 9.048 14.1259 9.466 12.5272 9.466H2.31919V16H0.889188V0.0719992H12.9012ZM12.7912 8.08C13.8472 8.08 14.6612 7.794 15.2332 7.222C15.8199 6.63533 16.1132 5.814 16.1132 4.758C16.1132 2.558 14.8299 1.458 12.2632 1.458H2.31919V8.08H12.7912ZM34.7541 16H21.3781V2.47H34.2261V3.856H22.8081V8.146H30.7501V9.532H22.8081V14.614H34.7541V16ZM52.4742 16H50.8022L48.9542 12.546H39.5602L37.6682 16H36.0182L43.3002 2.47H45.2142L52.4742 16ZM48.2282 11.16L44.2902 3.834H44.2462L40.2862 11.16H48.2282ZM69.5242 16H67.7862L63.5182 10.544H56.3022V16H54.8722V2.47H65.1902C66.4809 2.47 67.5002 2.83667 68.2482 3.57C69.0109 4.30333 69.3922 5.29333 69.3922 6.54C69.3922 7.66933 69.0475 8.586 68.3582 9.29C67.6689 9.97933 66.6935 10.39 65.4322 10.522L69.5242 16ZM65.1022 9.158C65.9675 9.158 66.6349 8.93067 67.1042 8.476C67.5735 8.00667 67.8082 7.34667 67.8082 6.496C67.8082 4.736 66.7595 3.856 64.6622 3.856H56.3022V9.158H65.1022ZM85.3776 4.78C83.6763 3.88533 81.7329 3.438 79.5476 3.438C76.2329 3.438 74.5756 4.22267 74.5756 5.792C74.5756 6.64267 75.0229 7.22933 75.9176 7.552C76.6803 7.84533 78.0589 8.02867 80.0536 8.102C82.6643 8.20467 84.4756 8.498 85.4876 8.982C86.6756 9.53933 87.2696 10.522 87.2696 11.93C87.2696 13.3233 86.6609 14.4013 85.4436 15.164C84.2263 15.9267 82.4736 16.308 80.1856 16.308C77.0616 16.308 74.5243 15.6187 72.5736 14.24L73.3876 13.074C75.3823 14.3353 77.6556 14.966 80.2076 14.966C81.9236 14.966 83.2509 14.702 84.1896 14.174C85.1429 13.646 85.6196 12.942 85.6196 12.062C85.6196 11.1233 85.1649 10.4633 84.2556 10.082C83.4783 9.75933 82.1069 9.554 80.1416 9.466C77.4869 9.36333 75.6829 9.114 74.7296 8.718C73.5269 8.24867 72.9256 7.36133 72.9256 6.056C72.9256 4.80933 73.4976 3.84133 74.6416 3.152C75.8003 2.448 77.4429 2.096 79.5696 2.096C82.2536 2.096 84.4683 2.63133 86.2136 3.702L85.3776 4.78ZM106.844 9.202C106.844 11.402 106.001 13.184 104.314 14.548C102.789 15.78 100.868 16.396 98.5503 16.396C96.2623 16.396 94.3483 15.7727 92.8083 14.526C91.1216 13.162 90.2783 11.3873 90.2783 9.202C90.2783 7.046 91.1289 5.27867 92.8303 3.9C94.3849 2.63867 96.2916 2.008 98.5503 2.008C100.809 2.008 102.716 2.63867 104.27 3.9C105.986 5.29333 106.844 7.06067 106.844 9.202ZM105.304 9.334C105.304 7.60333 104.674 6.18067 103.412 5.066C102.166 3.93667 100.545 3.372 98.5503 3.372C96.5556 3.372 94.9349 3.93667 93.6883 5.066C92.4416 6.19533 91.8183 7.63267 91.8183 9.378C91.8183 11.0207 92.4343 12.37 93.6663 13.426C94.9129 14.482 96.5409 15.01 98.5503 15.01C100.56 15.01 102.188 14.482 103.434 13.426C104.681 12.3553 105.304 10.9913 105.304 9.334ZM125.425 16H123.621L112.269 3.834V16H110.839V2.47H112.643L123.995 14.636V2.47H125.425V16ZM19.1294 28.602C17.2081 27.546 15.0008 27.018 12.5074 27.018C10.5274 27.018 9.00942 27.2893 7.95342 27.832C6.91209 28.36 6.39142 29.1153 6.39142 30.098C6.39142 31.066 6.89742 31.7553 7.90942 32.166C8.80409 32.5327 10.3221 32.76 12.4634 32.848C14.2968 32.9213 15.5361 32.9947 16.1814 33.068C17.3548 33.1853 18.2934 33.398 18.9974 33.706C20.5521 34.3807 21.3294 35.5613 21.3294 37.248C21.3294 38.8613 20.6181 40.1227 19.1954 41.032C17.7874 41.9267 15.7634 42.374 13.1234 42.374C9.54476 42.374 6.62609 41.5893 4.36742 40.02L5.20342 38.81C7.52076 40.2913 10.0581 41.032 12.8154 41.032C15.0154 41.032 16.7021 40.7093 17.8754 40.064C19.0634 39.404 19.6574 38.4947 19.6574 37.336C19.6574 36.2507 19.1221 35.4733 18.0514 35.004C17.0981 34.5787 15.4774 34.3147 13.1894 34.212C11.5028 34.1387 10.3294 34.0653 9.66942 33.992C8.56942 33.8893 7.69676 33.7133 7.05142 33.464C5.49676 32.8773 4.71942 31.814 4.71942 30.274C4.71942 28.8367 5.38676 27.7147 6.72142 26.908C8.05609 26.0867 9.95542 25.676 12.4194 25.676C15.7488 25.676 18.3228 26.2847 20.1414 27.502L19.1294 28.602ZM35.6062 28.47C36.8969 28.47 37.9162 28.8367 38.6642 29.57C39.4269 30.3033 39.8082 31.2933 39.8082 32.54C39.8082 33.7573 39.4049 34.7327 38.5982 35.466C37.7916 36.1847 36.6916 36.544 35.2982 36.544H26.7182V42H25.2882V28.47H35.6062ZM35.5182 35.158C36.3836 35.158 37.0509 34.9307 37.5202 34.476C37.9896 34.0067 38.2242 33.3467 38.2242 32.496C38.2242 30.736 37.1756 29.856 35.0782 29.856H26.7182V35.158H35.5182ZM56.0666 42H42.6906V28.47H55.5386V29.856H44.1206V34.146H52.0626V35.532H44.1206V40.614H56.0666V42ZM73.2379 31.154L71.9399 31.66C70.5759 30.1347 68.6106 29.372 66.0439 29.372C64.0492 29.372 62.4286 29.9293 61.1819 31.044C59.9352 32.1587 59.3119 33.5887 59.3119 35.334C59.3119 36.962 59.9352 38.3187 61.1819 39.404C62.4432 40.4747 64.0639 41.01 66.0439 41.01C68.6546 41.01 70.6199 40.262 71.9399 38.766L73.1499 39.514C71.6686 41.406 69.2999 42.352 66.0439 42.352C63.7266 42.352 61.8126 41.736 60.3019 40.504C58.6299 39.14 57.7939 37.3653 57.7939 35.18C57.7939 33.0093 58.6372 31.2493 60.3239 29.9C61.8786 28.6533 63.7852 28.03 66.0439 28.03C69.1972 28.03 71.5952 29.0713 73.2379 31.154ZM88.0893 29.856H81.6213V42H80.1913V29.856H73.7233V28.47H88.0893V29.856ZM103.826 42H90.4503V28.47H103.298V29.856H91.8803V34.146H99.8223V35.532H91.8803V40.614H103.826V42ZM121.817 42H120.079L115.811 36.544H108.595V42H107.165V28.47H117.483C118.774 28.47 119.793 28.8367 120.541 29.57C121.304 30.3033 121.685 31.2933 121.685 32.54C121.685 33.6693 121.341 34.586 120.651 35.29C119.962 35.9793 118.987 36.39 117.725 36.522L121.817 42ZM117.395 35.158C118.261 35.158 118.928 34.9307 119.397 34.476C119.867 34.0067 120.101 33.3467 120.101 32.496C120.101 30.736 119.053 29.856 116.955 29.856H108.595V35.158H117.395ZM52.9131 68H39.1851V52.072H40.6151V66.614H52.9131V68ZM56.7211 68H55.2911V54.47H56.7211V68ZM73.4692 55.856H67.0012V68H65.5712V55.856H59.1032V54.47H73.4692V55.856ZM89.475 55.856H83.007V68H81.577V55.856H75.109V54.47H89.475V55.856Z" fill="#2E3E74"/>
</svg>
