<svg xmlns="http://www.w3.org/2000/svg" width="45" height="45" viewBox="0 0 45 45">
  <path id="Icon_awesome-check-circle" data-name="Icon awesome-check-circle" d="M45.875,23.375a22.5,22.5,0,1,1-22.5-22.5A22.5,22.5,0,0,1,45.875,23.375Zm-25.1,11.914L37.466,18.6a1.452,1.452,0,0,0,0-2.053l-2.053-2.053a1.452,1.452,0,0,0-2.053,0L19.746,28.1,13.39,21.747a1.452,1.452,0,0,0-2.053,0L9.284,23.8a1.452,1.452,0,0,0,0,2.053l9.435,9.435A1.452,1.452,0,0,0,20.772,35.289Z" transform="translate(-0.875 -0.875)" fill="#2d3c70"/>
</svg>
