<svg xmlns="http://www.w3.org/2000/svg" width="45" height="45" viewBox="0 0 45 45">
  <g id="Group_13" data-name="Group 13" transform="translate(-270 -4579)">
    <circle id="Ellipse_1" data-name="Ellipse 1" cx="22.5" cy="22.5" r="22.5" transform="translate(270 4579)" fill="#b3b9cc"/>
    <path id="Icon_awesome-twitter" data-name="Icon awesome-twitter" d="M26.916,11.331c.019.266.019.533.019.8,0,8.128-6.187,17.494-17.494,17.494A17.375,17.375,0,0,1,0,26.864a12.719,12.719,0,0,0,1.485.076,12.314,12.314,0,0,0,7.633-2.627A6.159,6.159,0,0,1,3.369,20.05a7.754,7.754,0,0,0,1.161.1,6.5,6.5,0,0,0,1.618-.209A6.149,6.149,0,0,1,1.218,13.9v-.076A6.192,6.192,0,0,0,4,14.605a6.158,6.158,0,0,1-1.9-8.223,17.477,17.477,0,0,0,12.678,6.434,6.941,6.941,0,0,1-.152-1.409A6.154,6.154,0,0,1,25.26,7.2a12.105,12.105,0,0,0,3.9-1.485,6.132,6.132,0,0,1-2.7,3.388A12.326,12.326,0,0,0,30,8.152,13.217,13.217,0,0,1,26.916,11.331Z" transform="translate(277.4 4583.741)" fill="#2d3c70"/>
  </g>
</svg>
